<?xml version="1.0" encoding="utf-8"?>
<!-- Generator: Adobe Illustrator 21.1.0, SVG Export Plug-In . SVG Version: 6.00 Build 0)  -->
<svg version="1.1" id="Layer_1" xmlns="http://www.w3.org/2000/svg" xmlns:xlink="http://www.w3.org/1999/xlink" x="0px" y="0px"
	 viewBox="0 0 208 129" style="enable-background:new 0 0 208 129;" xml:space="preserve">
<style type="text/css">
	.st0{fill:#231F20;}
</style>
<g>
	<polygon class="st0" points="80.9,103.5 97.2,103.5 126.6,25 110.2,25 	"/>
	<polygon class="st0" points="24.7,54.7 48.7,64.3 24.7,73.8 24.7,86.4 67.7,103.5 67.7,87.8 44.3,80.1 67.7,72.4 67.7,71.8 
		67.7,56.7 67.7,56.1 44.3,48.4 67.7,40.7 67.7,25 24.7,42.1 	"/>
	<polygon class="st0" points="182.8,42.1 139.8,25 139.8,40.7 163.2,48.4 139.8,56.1 139.8,56.7 139.8,71.8 139.8,72.4 163.2,80.1 
		139.8,87.8 139.8,103.5 182.8,86.4 182.8,73.8 158.8,64.3 182.8,54.7 	"/>
</g>
</svg>
